<?xml version="1.0" encoding="UTF-8"?>
<svg id="Livello_2" data-name="Livello 2" xmlns="http://www.w3.org/2000/svg" viewBox="0 0 69.38 69.5">
  <defs>
    <style>
      .cls-1 {
        stroke-width: 0px;
      }
    </style>
  </defs>
  <g id="Livello_1-2" data-name="Livello 1">
    <path class="cls-1" d="m43.55,14.76c-.88,0-1.75,0-2.63,0-8.22,0-16.44.02-24.67,0-4.36-.01-7.34-1.86-8.29-5.02C6.37,4.4,9.83.13,15.94.04c5.15-.08,10.3-.02,15.45-.02,9.55,0,19.1,0,28.65,0,6.49,0,9.31,2.74,9.32,9.2.03,15.45.03,30.89,0,46.34,0,4.72-1.75,7.55-5.05,8.5-5.12,1.47-9.43-1.95-9.48-7.67-.07-9.3-.02-18.6-.02-27.9,0-.87,0-1.75,0-3.35-1.16,1.09-1.81,1.67-2.42,2.28-12.98,12.97-25.96,25.96-38.94,38.93-2.27,2.27-4.76,3.89-8.2,2.81-4.74-1.49-6.71-6.58-4.08-10.78.65-1.04,1.54-1.95,2.41-2.83,12.67-12.7,25.36-25.38,38.06-38.05.7-.7,1.6-1.21,2.4-1.81-.17-.31-.33-.63-.5-.94Z"/>
  </g>
</svg>